inDegrees=no
num_controls=7
num_derivatives=13
num_iterations=187
num_multipliers=7
num_parameters=0
num_slacks=7
num_states=26
objective=5.818325
objective_accelerations=0.659068
objective_balance=0.022442
objective_effort=0.478730
objective_height=4.564017
objective_ligament=0.094067
solver_duration=1559.877052
status=Solve_Succeeded
success=true
DataType=double
version=3
OpenSimVersion=4.4-2022-07-23-0e9fedc
endheader
time	/jointset/ground_pelvis/pelvis_tilt/value	/jointset/ground_pelvis/pelvis_tx/value	/jointset/ground_pelvis/pelvis_ty/value	/jointset/hip_r/hip_flexion_r/value	/jointset/hip_r/hip_adduction_r/value	/jointset/hip_r/hip_rotation_r/value	/jointset/back/lumbar_extension/value	/jointset/patellofemoral_r/patellar_flexion_r/value	/jointset/knee_r/knee_flexion_r/value	/jointset/knee_r/knee_adduction_r/value	/jointset/knee_r/knee_rotation_r/value	/jointset/ankle_r/ankle_angle_r/value	/jointset/subtalar_r/subtalar_angle_r/value	/jointset/ground_pelvis/pelvis_tilt/speed	/jointset/ground_pelvis/pelvis_tx/speed	/jointset/ground_pelvis/pelvis_ty/speed	/jointset/hip_r/hip_flexion_r/speed	/jointset/hip_r/hip_adduction_r/speed	/jointset/hip_r/hip_rotation_r/speed	/jointset/back/lumbar_extension/speed	/jointset/patellofemoral_r/patellar_flexion_r/speed	/jointset/knee_r/knee_flexion_r/speed	/jointset/knee_r/knee_adduction_r/speed	/jointset/knee_r/knee_rotation_r/speed	/jointset/ankle_r/ankle_angle_r/speed	/jointset/subtalar_r/subtalar_angle_r/speed	/forceset/tau_hip_flexion_r	/forceset/tau_hip_adduction_r	/forceset/tau_hip_rotation_r	/forceset/tau_knee_flexion_r	/forceset/tau_ankle_angle_r	/forceset/tau_subtalar_angle_r	/forceset/tau_lumbar_extension	lambda_cid13_p0	lambda_cid14_p0	lambda_cid14_p1	lambda_cid14_p2	lambda_cid14_p3	lambda_cid14_p4	lambda_cid14_p5	/jointset/ground_pelvis/pelvis_tilt/accel	/jointset/ground_pelvis/pelvis_tx/accel	/jointset/ground_pelvis/pelvis_ty/accel	/jointset/hip_r/hip_flexion_r/accel	/jointset/hip_r/hip_adduction_r/accel	/jointset/hip_r/hip_rotation_r/accel	/jointset/back/lumbar_extension/accel	/jointset/patellofemoral_r/patellar_flexion_r/accel	/jointset/knee_r/knee_flexion_r/accel	/jointset/knee_r/knee_adduction_r/accel	/jointset/knee_r/knee_rotation_r/accel	/jointset/ankle_r/ankle_angle_r/accel	/jointset/subtalar_r/subtalar_angle_r/accel	gamma_cid13_p0	gamma_cid14_p0	gamma_cid14_p1	gamma_cid14_p2	gamma_cid14_p3	gamma_cid14_p4	gamma_cid14_p5
1.5	-0.09949441109242715	0.02938893483672664	0.8092549307953989	0.8494692141302379	-0.2219713300783095	-0.1302269918602955	-0.6306560375052689	0.9648117088647232	0.9648117088647162	-0.06000167996520693	0.1745306179062756	0.3093329884180717	0.1462160034366199	0.5089543927766037	0.228830540364037	0.5422131873921973	-2.122388778895242	0.02859034113995076	-0.1996074017063084	0.8014961734577187	-2.030905447138505	-2.030905447138516	0.4496613586011569	-5.745409544170038e-05	-0.5255321691474989	-0.1701075504857781	-0.1691256709144841	-0.0008437083724287031	0.01790090170375995	-0.3027102939253935	0.007554524647757194	0.004950685153228509	0.2187041906719492	-8.005784310145057	-39.00855898312738	-3.488595284455201	-0.3827980119512296	-2.889810605931624	-628.3161775464557	68.16028884243694	0.1985211005162301	0.6055604598693027	-0.5457111872424836	-1.040089581819635	-0.2013230730908513	-0.59181636304542	1.884005743282134	-1.380368450326007	-1.380368450326009	0.4506907147985945	-0.01774417990477653	-0.7046863039308791	-0.4272612990402687	2.228689734464583e-07	2.506221775583168e-07	-6.588369604070637e-07	2.424490913288634e-06	-6.829100635248844e-08	3.757729596863293e-07	-4.270824240408174e-07
1.51	-0.09439520327261194	0.03170718688606732	0.8146486834590522	0.8281954202431883	-0.2216965724998712	-0.1322519150452948	-0.6225485802074578	0.9444362814681416	0.9444362814681441	-0.05548031877659529	0.1745303160573737	0.3040428285986674	0.1444922027085291	0.5108158404665822	0.234782745808058	0.5364199646907781	-2.132082111687714	0.02634520353815694	-0.2053654272813322	0.8198739650815683	-2.043892609065107	-2.043892609065078	0.4545983333538231	-9.803482422559892e-06	-0.5324235833578487	-0.1746277415687607	-0.1617973929600441	-0.001186134700173567	0.0176773134353763	-0.2979452606462005	0.008531417017851655	0.003842852032118532	0.2118711073826291	-9.039954078953668	-38.43616159850715	-3.772147564908697	-0.448796830647799	-2.658059983024616	-623.0271756419259	67.10525457710676	0.1692722431455592	0.5844856778976041	-0.6136693057380271	-0.8907515224840429	-0.2383473667068659	-0.5657316453427741	1.796467718663513	-1.214811967136987	-1.21481196713098	0.5131846426977669	0.01526295138140698	-0.6698945375390284	-0.4606429280505309	1.924974136393053e-07	1.862146901894693e-07	-8.899179430030657e-07	1.858934888146982e-06	-1.11871275896906e-08	3.442528690576356e-07	-6.200581946427773e-07
1.52	-0.08927951784791094	0.03408384800809443	0.8199809955968619	0.806833333749311	-0.2214447139500475	-0.1343340056841704	-0.6142609846240626	0.9239395980716343	0.9239395980716447	-0.0509099910830248	0.1745303393685023	0.2986860495255698	0.1427239510865835	0.512249913752823	0.2405123549013204	0.5299250822234819	-2.140047300261104	0.02401053541704455	-0.2110408924808369	0.8375238305744885	-2.055156647124095	-2.055156647124026	0.459454659594378	7.577909642446975e-06	-0.5388560198862803	-0.1789977292566755	-0.1544691150056185	-0.001528561027942332	0.0174537251671036	-0.293180227366997	0.009508309387939156	0.002735018910966573	0.2050380240932981	-10.11597872722932	-37.85940191968673	-4.046778108020361	-0.5255369625491109	-2.453640760358563	-617.6965969003004	66.1225391137426	0.1130462197688105	0.561041189717435	-0.6860431404179094	-0.6944607380031892	-0.2192291769545658	-0.5753042879416161	1.73842051709635	-1.035743676803089	-1.035743676803082	0.4345610123762838	-0.02379802409557966	-0.612890767547433	-0.3972206200267407	1.729568087312366e-07	1.482940647020605e-07	-1.011879675821394e-06	1.521535256720518e-06	2.01853653754394e-08	3.276468650024392e-07	-7.338727900688572e-07
1.53	-0.08415177580168381	0.03651670235055087	0.8252449249351589	0.785400309439488	-0.2212164729354925	-0.1364728861128837	-0.6058006056303671	0.9033388961888945	0.9033388961889108	-0.04629216105098487	0.1745303337147759	0.2932674357016508	0.1409131171865603	0.5132139846729803	0.2460216202297283	0.5227517541091694	-2.146262609643694	0.02163082699037234	-0.21674686543166	0.8544186840991699	-2.064693230125379	-2.064693230125333	0.464065943766781	-9.705004808294709e-06	-0.5447750570801192	-0.1831258645116026	-0.1467733607519517	-0.002812764333445004	0.01735558082039797	-0.2894074028374442	0.01149117906730118	0.001806136011728776	0.1979831451286415	-11.19463677114438	-36.96342039604986	-4.176022807417458	-0.6389041529986388	-2.525586105585829	-612.713407704516	65.6360495965713	0.07542290948143289	0.5403404754372186	-0.749267049931654	-0.5408060923479966	-0.2482401844246925	-0.5697286983374312	1.645025160506802	-0.8690728417656343	-0.8690728417690202	0.4674724111068147	0.009396307215582406	-0.5676163373367069	-0.4141296385842627	1.64924093403445e-07	1.385157299636798e-07	-1.017902205750946e-06	1.426551793616438e-06	2.421826093054764e-08	3.268870779315834e-07	-7.635786368705655e-07
1.54	-0.07901692596998261	0.03900354360049875	0.830433863111714	0.7639139840250481	-0.2210122087069868	-0.1386691232510432	-0.5971752766233537	0.8826515370301551	0.8826515370301622	-0.04162960611893771	0.1745301731783753	0.2877923902773868	0.1390622980019155	0.5136714708468125	0.251309736399608	0.5149268498750871	-2.150707521184722	0.01921517820766467	-0.2225122343698762	0.8705138332379465	-2.072488102325641	-2.072488102325618	0.4683996395965672	-2.339862584214659e-05	-0.5501423399553431	-0.1869947861808736	-0.1390776064982988	-0.004096967638968431	0.01725743647369208	-0.2856345783078922	0.01347404874665726	0.000877253112457153	0.1909282661639747	-12.27210850499161	-36.06668306400807	-4.301979158927834	-0.756400972879121	-2.609282750664699	-607.7215951218454	65.21215577012777	0.01172927050396291	0.5168113580116714	-0.8163583643718837	-0.3403811696904923	-0.226417248161658	-0.5871834854202626	1.57847963991554	-0.6874015165984861	-0.6874015165984865	0.3790433438528586	-0.0230801654121495	-0.5025399038245658	-0.3453779028955544	1.615674266686686e-07	1.252158112639497e-07	-1.110426679798483e-06	1.297992136188362e-06	3.984489463582715e-08	3.252122474000089e-07	-8.335708579246429e-07
